<svg width="1200" height="675" viewBox="0 0 1200 675" fill="none" xmlns="http://www.w3.org/2000/svg" role="img" aria-labelledby="title desc">
  <title id="title">EdgeLens analyzer</title>
  <desc id="desc">Product mock of the EdgeLens analyzer showing state and accessibility findings.</desc>
  <rect width="1200" height="675" rx="32" fill="#0f172a"/>
  <rect x="64" y="64" width="1072" height="547" rx="24" fill="#111827" stroke="#334155" stroke-width="2"/>
  <circle cx="104" cy="104" r="10" fill="#ef4444"/>
  <circle cx="136" cy="104" r="10" fill="#f59e0b"/>
  <circle cx="168" cy="104" r="10" fill="#22c55e"/>
  <rect x="96" y="156" width="410" height="364" rx="18" fill="#020617" stroke="#1e293b"/>
  <rect x="548" y="156" width="556" height="364" rx="18" fill="#020617" stroke="#1e293b"/>
  <text x="96" y="570" fill="#94a3b8" font-family="Inter, Arial, sans-serif" font-size="28">EdgeLens analyzer</text>
  <text x="96" y="226" fill="#f8fafc" font-family="Inter, Arial, sans-serif" font-size="44" font-weight="700">EdgeLens</text>
  <text x="96" y="276" fill="#94a3b8" font-family="Inter, Arial, sans-serif" font-size="24">State completeness pre-flight</text>
  <rect x="96" y="332" width="330" height="18" rx="9" fill="#38bdf8" opacity="0.9"/>
  <rect x="96" y="376" width="280" height="18" rx="9" fill="#64748b"/>
  <rect x="96" y="420" width="360" height="18" rx="9" fill="#64748b"/>
  <rect x="596" y="206" width="190" height="44" rx="22" fill="#16a34a"/>
  <rect x="596" y="282" width="430" height="18" rx="9" fill="#64748b"/>
  <rect x="596" y="326" width="360" height="18" rx="9" fill="#64748b"/>
  <rect x="596" y="370" width="470" height="18" rx="9" fill="#64748b"/>
  <rect x="596" y="430" width="220" height="52" rx="14" fill="#2563eb"/>
</svg>
